<?xml version="1.0" encoding="UTF-8"?>
<!DOCTYPE svg PUBLIC "-//W3C//DTD SVG 1.1//EN" "http://www.w3.org/Graphics/SVG/1.1/DTD/svg11.dtd">
<svg xmlns="http://www.w3.org/2000/svg" version="1.1" width="400px" height="400px" style="shape-rendering:geometricPrecision; text-rendering:geometricPrecision; image-rendering:optimizeQuality; fill-rule:evenodd; clip-rule:evenodd" xmlns:xlink="http://www.w3.org/1999/xlink">
<g><path style="opacity:1" fill="#4c3aef" d="M -0.5,-0.5 C 132.833,-0.5 266.167,-0.5 399.5,-0.5C 399.5,132.833 399.5,266.167 399.5,399.5C 266.167,399.5 132.833,399.5 -0.5,399.5C -0.5,266.167 -0.5,132.833 -0.5,-0.5 Z"/></g>
<g><path style="opacity:1" fill="#5040c9" d="M 287.5,87.5 C 241.33,87.1679 195.33,87.5012 149.5,88.5C 144.919,89.7919 140.919,92.1253 137.5,95.5C 137.33,94.1779 137.663,93.0113 138.5,92C 141.431,89.4855 144.764,87.8188 148.5,87C 195.002,86.1685 241.335,86.3351 287.5,87.5 Z"/></g>
<g><path style="opacity:1" fill="#534b93" d="M 149.5,88.5 C 195.33,87.5012 241.33,87.1679 287.5,87.5C 293.842,87.3338 300.175,87.5005 306.5,88C 308.093,88.9487 309.426,90.1154 310.5,91.5C 308.076,90.9695 305.743,90.1362 303.5,89C 252.168,88.5 200.834,88.3333 149.5,88.5 Z"/></g>
<g><path style="opacity:1" fill="#5b4bc3" d="M 137.5,95.5 C 134.891,100.466 132.224,105.466 129.5,110.5C 129.043,111.298 128.376,111.631 127.5,111.5C 129.673,105.351 133.006,100.018 137.5,95.5 Z"/></g>
<g><path style="opacity:1" fill="#f7f6f9" d="M 149.5,88.5 C 200.834,88.3333 252.168,88.5 303.5,89C 305.743,90.1362 308.076,90.9695 310.5,91.5C 311.812,93.4788 313.479,95.1455 315.5,96.5C 316.702,98.7805 317.702,101.114 318.5,103.5C 318.436,107.22 317.936,110.886 317,114.5C 311.972,121.893 307.472,129.56 303.5,137.5C 301.654,139.03 300.654,141.03 300.5,143.5C 298.204,144.733 296.87,146.733 296.5,149.5C 294,152.494 292,155.827 290.5,159.5C 289.11,160.899 288.11,162.566 287.5,164.5C 284.643,169.435 280.309,172.101 274.5,172.5C 275.78,170.894 275.28,169.894 273,169.5C 261.852,170.801 250.686,170.801 239.5,169.5C 239.291,168.914 238.957,168.414 238.5,168C 244.167,167.667 249.833,167.333 255.5,167C 250.177,166.501 244.844,166.334 239.5,166.5C 239.719,165.325 239.386,164.325 238.5,163.5C 235.157,162.974 231.99,161.974 229,160.5C 226.727,162.892 224.56,162.892 222.5,160.5C 190.875,161.326 159.209,161.826 127.5,162C 124.318,164.246 122.318,163.413 121.5,159.5C 150.167,159.5 178.833,159.5 207.5,159.5C 208.167,159.5 208.833,159.5 209.5,159.5C 211.833,159.5 214.167,159.5 216.5,159.5C 210.254,143.07 203.254,127.07 195.5,111.5C 194.866,108.063 193.533,104.896 191.5,102C 178.167,101.333 164.833,101.333 151.5,102C 150,103.5 148.5,105 147,106.5C 144.583,111.288 142.083,115.955 139.5,120.5C 135,126.827 131,133.494 127.5,140.5C 125.167,143.833 122.833,147.167 120.5,150.5C 120.413,147.439 119.413,144.773 117.5,142.5C 118.068,140.796 118.068,139.296 117.5,138C 120.244,136.676 121.577,134.509 121.5,131.5C 120.448,131.351 119.448,131.517 118.5,132C 117.623,134.612 115.957,136.445 113.5,137.5C 116.26,131.644 119.26,125.977 122.5,120.5C 124.56,117.76 126.226,114.76 127.5,111.5C 128.376,111.631 129.043,111.298 129.5,110.5C 132.224,105.466 134.891,100.466 137.5,95.5C 140.919,92.1253 144.919,89.7919 149.5,88.5 Z"/></g>
<g><path style="opacity:1" fill="#5042d2" d="M 300.5,102.5 C 302.818,102.818 304.152,104.152 304.5,106.5C 302.864,110.449 300.864,114.115 298.5,117.5C 299.569,114.74 300.569,111.907 301.5,109C 300.13,107.559 299.13,105.892 298.5,104C 273.502,103.5 248.502,103.333 223.5,103.5C 223.5,104.5 223.5,105.5 223.5,106.5C 222.167,106.5 220.833,106.5 219.5,106.5C 219.5,105.5 219.5,104.5 219.5,103.5C 217.151,103.458 215.818,104.625 215.5,107C 216.863,109.508 217.196,112.008 216.5,114.5C 214.595,112.155 213.429,109.488 213,106.5C 211.844,105.007 211.01,105.174 210.5,107C 211.479,109.433 212.145,111.933 212.5,114.5C 210.341,111.516 208.675,108.183 207.5,104.5C 238.149,102.508 269.149,101.841 300.5,102.5 Z"/></g>
<g><path style="opacity:1" fill="#6759d5" d="M 195.5,111.5 C 194.504,111.586 193.671,111.252 193,110.5C 192.023,108.26 191.523,105.927 191.5,103.5C 178.163,103.333 164.829,103.5 151.5,104C 148.111,106.619 146.611,110.119 147,114.5C 143.807,115.714 141.307,117.714 139.5,120.5C 142.083,115.955 144.583,111.288 147,106.5C 148.5,105 150,103.5 151.5,102C 164.833,101.333 178.167,101.333 191.5,102C 193.533,104.896 194.866,108.063 195.5,111.5 Z"/></g>
<g><path style="opacity:1" fill="#9c96ec" d="M 300.5,102.5 C 269.149,101.841 238.149,102.508 207.5,104.5C 206.596,103.791 206.263,102.791 206.5,101.5C 238.004,101.168 269.338,101.502 300.5,102.5 Z"/></g>
<g><path style="opacity:1" fill="#4c3ce4" d="M 298.5,117.5 C 298.5,118.167 298.167,118.5 297.5,118.5C 297.771,116.179 297.104,114.179 295.5,112.5C 296.325,111.614 297.325,111.281 298.5,111.5C 298.5,110.167 298.5,108.833 298.5,107.5C 273.512,106.615 248.512,106.281 223.5,106.5C 223.5,105.5 223.5,104.5 223.5,103.5C 248.502,103.333 273.502,103.5 298.5,104C 299.13,105.892 300.13,107.559 301.5,109C 300.569,111.907 299.569,114.74 298.5,117.5 Z"/></g>
<g><path style="opacity:1" fill="#4c3aef" d="M 195.5,111.5 C 195.261,114.915 195.928,118.081 197.5,121C 196.614,123.808 196.447,126.641 197,129.5C 200.365,124.59 201.865,125.59 201.5,132.5C 200.5,132.5 199.5,132.5 198.5,132.5C 198.338,134.527 198.505,136.527 199,138.5C 199.414,138.957 199.914,139.291 200.5,139.5C 201.205,137.328 202.205,135.328 203.5,133.5C 204.694,136.32 204.694,139.153 203.5,142C 203.833,142.5 204.167,143 204.5,143.5C 205.258,142.189 206.258,141.689 207.5,142C 208.158,144.727 209.325,147.227 211,149.5C 211.682,153.069 211.182,156.402 209.5,159.5C 208.833,159.5 208.167,159.5 207.5,159.5C 207.5,158.5 207.5,157.5 207.5,156.5C 180.5,156.5 153.5,156.5 126.5,156.5C 127.257,151.129 127.59,145.796 127.5,140.5C 131,133.494 135,126.827 139.5,120.5C 141.307,117.714 143.807,115.714 147,114.5C 146.611,110.119 148.111,106.619 151.5,104C 164.829,103.5 178.163,103.333 191.5,103.5C 191.523,105.927 192.023,108.26 193,110.5C 193.671,111.252 194.504,111.586 195.5,111.5 Z"/></g>
<g><path style="opacity:1" fill="#4c3aef" d="M 223.5,106.5 C 248.512,106.281 273.512,106.615 298.5,107.5C 298.5,108.833 298.5,110.167 298.5,111.5C 297.325,111.281 296.325,111.614 295.5,112.5C 297.104,114.179 297.771,116.179 297.5,118.5C 296.083,121.669 294.417,124.669 292.5,127.5C 291.5,127.5 290.5,127.5 289.5,127.5C 288.361,130.004 287.694,132.67 287.5,135.5C 287.672,136.492 287.338,137.158 286.5,137.5C 284.801,138.511 283.301,139.845 282,141.5C 280.462,140.251 279.295,140.418 278.5,142C 279.167,143 279.833,144 280.5,145C 278.807,147.22 277.807,149.72 277.5,152.5C 277.167,153.167 276.833,153.833 276.5,154.5C 274.089,154.863 272.589,153.863 272,151.5C 271.506,153.134 271.34,154.801 271.5,156.5C 260.495,156.667 249.495,156.5 238.5,156C 236.308,153.214 233.641,152.714 230.5,154.5C 230.5,153.5 230.5,152.5 230.5,151.5C 231.5,151.5 232.5,151.5 233.5,151.5C 233.516,147.726 231.85,146.726 228.5,148.5C 227.682,145.893 227.182,143.226 227,140.5C 225.989,139.663 224.822,139.33 223.5,139.5C 223.816,132.872 221.483,127.539 216.5,123.5C 214.375,120.912 213.042,117.912 212.5,114.5C 212.145,111.933 211.479,109.433 210.5,107C 211.01,105.174 211.844,105.007 213,106.5C 213.429,109.488 214.595,112.155 216.5,114.5C 217.196,112.008 216.863,109.508 215.5,107C 215.818,104.625 217.151,103.458 219.5,103.5C 219.5,104.5 219.5,105.5 219.5,106.5C 220.833,106.5 222.167,106.5 223.5,106.5 Z"/></g>
<g><path style="opacity:1" fill="#5a48d9" d="M 318.5,103.5 C 319.654,109.987 319.821,116.654 319,123.5C 317.66,124.868 316.326,126.201 315,127.5C 314.05,126.978 313.216,126.311 312.5,125.5C 311.018,130.647 308.018,134.647 303.5,137.5C 307.472,129.56 311.972,121.893 317,114.5C 317.936,110.886 318.436,107.22 318.5,103.5 Z"/></g>
<g><path style="opacity:1" fill="#5747cd" d="M 216.5,123.5 C 221.483,127.539 223.816,132.872 223.5,139.5C 221.445,135.561 219.278,131.561 217,127.5C 216.51,126.207 216.343,124.873 216.5,123.5 Z"/></g>
<g><path style="opacity:1" fill="#4f3ee3" d="M 122.5,120.5 C 119.26,125.977 116.26,131.644 113.5,137.5C 107.484,143.547 104.817,150.881 105.5,159.5C 104.5,159.5 103.5,159.5 102.5,159.5C 101.027,164.913 99.6935,164.746 98.5,159C 98.4235,156.244 99.7569,155.077 102.5,155.5C 102.806,151.253 102.139,147.253 100.5,143.5C 101.93,143.421 103.264,143.754 104.5,144.5C 105.216,142.518 106.383,140.851 108,139.5C 108.494,137.866 108.66,136.199 108.5,134.5C 106.396,134.201 104.396,134.534 102.5,135.5C 102.088,137.887 101.088,139.887 99.5,141.5C 97.876,140.131 97.376,138.464 98,136.5C 99.622,134.094 101.789,132.261 104.5,131C 107.834,129.788 110.334,130.621 112,133.5C 112.525,125.447 115.358,118.113 120.5,111.5C 120.833,112.167 121.167,112.833 121.5,113.5C 120.833,115.5 120.167,117.5 119.5,119.5C 119.876,121.803 120.876,122.137 122.5,120.5 Z"/></g>
<g><path style="opacity:1" fill="#554abc" d="M 292.5,127.5 C 290.825,130.245 289.158,132.912 287.5,135.5C 287.694,132.67 288.361,130.004 289.5,127.5C 290.5,127.5 291.5,127.5 292.5,127.5 Z"/></g>
<g><path style="opacity:1" fill="#675bc1" d="M 303.5,137.5 C 303.346,139.97 302.346,141.97 300.5,143.5C 300.654,141.03 301.654,139.03 303.5,137.5 Z"/></g>
<g><path style="opacity:1" fill="#5647d4" d="M 195.5,111.5 C 203.254,127.07 210.254,143.07 216.5,159.5C 214.167,159.5 211.833,159.5 209.5,159.5C 211.182,156.402 211.682,153.069 211,149.5C 209.325,147.227 208.158,144.727 207.5,142C 206.258,141.689 205.258,142.189 204.5,143.5C 204.167,143 203.833,142.5 203.5,142C 204.694,139.153 204.694,136.32 203.5,133.5C 202.205,135.328 201.205,137.328 200.5,139.5C 199.914,139.291 199.414,138.957 199,138.5C 198.505,136.527 198.338,134.527 198.5,132.5C 199.5,132.5 200.5,132.5 201.5,132.5C 201.865,125.59 200.365,124.59 197,129.5C 196.447,126.641 196.614,123.808 197.5,121C 195.928,118.081 195.261,114.915 195.5,111.5 Z"/></g>
<g><path style="opacity:1" fill="#5646cd" d="M 286.5,137.5 C 284.052,142.866 281.052,147.866 277.5,152.5C 277.807,149.72 278.807,147.22 280.5,145C 279.833,144 279.167,143 278.5,142C 279.295,140.418 280.462,140.251 282,141.5C 283.301,139.845 284.801,138.511 286.5,137.5 Z"/></g>
<g><path style="opacity:1" fill="#6457c4" d="M 296.5,149.5 C 295.492,152.844 294.492,156.177 293.5,159.5C 292.5,159.5 291.5,159.5 290.5,159.5C 292,155.827 294,152.494 296.5,149.5 Z"/></g>
<g><path style="opacity:1" fill="#4e3fdc" d="M 127.5,140.5 C 127.59,145.796 127.257,151.129 126.5,156.5C 153.5,156.5 180.5,156.5 207.5,156.5C 207.5,157.5 207.5,158.5 207.5,159.5C 178.833,159.5 150.167,159.5 121.5,159.5C 119.22,156.854 118.887,153.854 120.5,150.5C 122.833,147.167 125.167,143.833 127.5,140.5 Z"/></g>
<g><path style="opacity:1" fill="#5041dc" d="M 223.5,139.5 C 224.822,139.33 225.989,139.663 227,140.5C 227.182,143.226 227.682,145.893 228.5,148.5C 231.85,146.726 233.516,147.726 233.5,151.5C 232.5,151.5 231.5,151.5 230.5,151.5C 230.5,152.5 230.5,153.5 230.5,154.5C 233.641,152.714 236.308,153.214 238.5,156C 249.495,156.5 260.495,156.667 271.5,156.5C 271.34,154.801 271.506,153.134 272,151.5C 272.589,153.863 274.089,154.863 276.5,154.5C 275.883,156.229 274.883,157.729 273.5,159C 259.5,159.667 245.5,159.667 231.5,159C 228.051,152.752 225.384,146.252 223.5,139.5 Z"/></g>
<g><path style="opacity:1" fill="#564eba" d="M 290.5,159.5 C 291.084,162.285 290.084,163.952 287.5,164.5C 288.11,162.566 289.11,160.899 290.5,159.5 Z"/></g>
<g><path style="opacity:1" fill="#6f60cd" d="M 105.5,160.5 C 107.915,163.34 109.248,166.673 109.5,170.5C 107.085,167.66 105.752,164.327 105.5,160.5 Z"/></g>
<g><path style="opacity:1" fill="#6352d6" d="M 287.5,164.5 C 285.835,169.009 282.835,172.509 278.5,175C 270.173,175.5 261.84,175.666 253.5,175.5C 253.671,178.797 253.005,179.131 251.5,176.5C 249.955,175.548 248.288,175.215 246.5,175.5C 246.281,180.629 245.614,180.629 244.5,175.5C 243.5,175.5 242.5,175.5 241.5,175.5C 243.139,180.437 244.473,185.437 245.5,190.5C 244.833,189.833 244.167,189.167 243.5,188.5C 243.747,186.142 243.081,184.142 241.5,182.5C 240.072,179.697 239.405,176.697 239.5,173.5C 251.345,173.828 263.012,173.495 274.5,172.5C 280.309,172.101 284.643,169.435 287.5,164.5 Z"/></g>
<g><path style="opacity:1" fill="#6759ca" d="M 117.5,187.5 C 119.204,190.256 120.537,193.256 121.5,196.5C 120.504,196.586 119.671,196.252 119,195.5C 118.178,192.883 117.678,190.216 117.5,187.5 Z"/></g>
<g><path style="opacity:1" fill="#fcfcf8" d="M 120.5,150.5 C 118.887,153.854 119.22,156.854 121.5,159.5C 122.318,163.413 124.318,164.246 127.5,162C 159.209,161.826 190.875,161.326 222.5,160.5C 224.56,162.892 226.727,162.892 229,160.5C 231.99,161.974 235.157,162.974 238.5,163.5C 239.386,164.325 239.719,165.325 239.5,166.5C 244.844,166.334 250.177,166.501 255.5,167C 249.833,167.333 244.167,167.667 238.5,168C 238.957,168.414 239.291,168.914 239.5,169.5C 250.686,170.801 261.852,170.801 273,169.5C 275.28,169.894 275.78,170.894 274.5,172.5C 262.449,172.813 250.449,172.479 238.5,171.5C 237.833,171.833 237.167,172.167 236.5,172.5C 236.188,177.372 234.522,181.706 231.5,185.5C 229.56,183.955 228.394,181.955 228,179.5C 227.617,180.056 227.117,180.389 226.5,180.5C 226.25,178.326 225.25,176.659 223.5,175.5C 191.851,173.507 159.851,172.841 127.5,173.5C 127.5,174.5 127.5,175.5 127.5,176.5C 128.273,181.808 128.44,187.141 128,192.5C 128.98,190.941 129.813,189.274 130.5,187.5C 132.099,190.627 133.266,193.96 134,197.5C 134.333,197.167 134.667,196.833 135,196.5C 136.785,197.24 138.618,197.907 140.5,198.5C 154.457,197.842 168.457,197.508 182.5,197.5C 200.319,197.677 217.486,198.344 234,199.5C 237.357,198.258 237.19,197.424 233.5,197C 233.65,191.781 235.317,187.115 238.5,183C 238.167,182.667 237.833,182.333 237.5,182C 238.819,181.805 240.153,181.972 241.5,182.5C 243.081,184.142 243.747,186.142 243.5,188.5C 243.811,191.916 244.811,195.083 246.5,198C 246.167,198.5 245.833,199 245.5,199.5C 244.391,198.41 243.391,198.41 242.5,199.5C 243.087,202.406 244.754,204.072 247.5,204.5C 247.5,205.5 247.5,206.5 247.5,207.5C 248.978,207.238 250.311,207.571 251.5,208.5C 247.504,210.488 246.504,213.488 248.5,217.5C 247.101,222.554 245.768,222.221 244.5,216.5C 245.073,214.646 245.407,212.813 245.5,211C 243.527,210.505 241.527,210.338 239.5,210.5C 239.167,210.5 238.833,210.5 238.5,210.5C 237.791,209.596 236.791,209.263 235.5,209.5C 204.671,208.502 173.671,208.169 142.5,208.5C 142.263,209.791 142.596,210.791 143.5,211.5C 145.186,215.576 146.853,219.576 148.5,223.5C 150.299,229.095 152.632,234.429 155.5,239.5C 157.999,244.814 160.499,250.147 163,255.5C 163.49,256.793 163.657,258.127 163.5,259.5C 164.167,262.5 164.833,265.5 165.5,268.5C 180.5,268.5 195.5,268.5 210.5,268.5C 210.421,269.93 210.754,271.264 211.5,272.5C 210.311,273.429 208.978,273.762 207.5,273.5C 207.5,274.5 207.5,275.5 207.5,276.5C 196.833,276.5 186.167,276.5 175.5,276.5C 175.5,277.5 175.5,278.5 175.5,279.5C 186.172,279.333 196.839,279.5 207.5,280C 193.661,280.169 179.994,280.669 166.5,281.5C 164.167,283.167 162.167,285.167 160.5,287.5C 159.833,287.5 159.5,287.833 159.5,288.5C 156.933,286.765 156.933,284.765 159.5,282.5C 158.672,281.585 157.672,280.919 156.5,280.5C 155.174,281.99 153.674,283.324 152,284.5C 151.46,286.135 151.96,287.468 153.5,288.5C 151.242,288.242 148.909,288.242 146.5,288.5C 148.156,289.992 149.656,291.658 151,293.5C 151.688,294.332 151.521,294.998 150.5,295.5C 147.372,293.197 144.706,290.53 142.5,287.5C 142.833,286.833 143.167,286.167 143.5,285.5C 144.973,286.071 146.64,286.071 148.5,285.5C 147.735,280.094 150.069,278.094 155.5,279.5C 155.657,278.127 155.49,276.793 155,275.5C 153.155,274.95 151.655,273.95 150.5,272.5C 150.709,271.914 151.043,271.414 151.5,271C 138.154,270.833 124.821,270.333 111.5,269.5C 124.994,268.833 138.327,268.167 151.5,267.5C 152.833,266.5 152.833,265.5 151.5,264.5C 150.231,260.592 148.565,256.925 146.5,253.5C 145.012,248.533 143.012,243.866 140.5,239.5C 139.092,235.687 137.426,232.02 135.5,228.5C 135.5,227.833 135.5,227.167 135.5,226.5C 135.762,225.022 135.429,223.689 134.5,222.5C 132.868,221.703 131.368,220.703 130,219.5C 129.055,219.905 128.388,220.572 128,221.5C 127.659,218.813 126.326,216.813 124,215.5C 123.76,213.023 124.594,210.856 126.5,209C 125.944,208.617 125.611,208.117 125.5,207.5C 124.975,203.467 123.642,199.8 121.5,196.5C 120.537,193.256 119.204,190.256 117.5,187.5C 115.578,181.33 112.911,175.663 109.5,170.5C 109.248,166.673 107.915,163.34 105.5,160.5C 105.5,160.167 105.5,159.833 105.5,159.5C 104.817,150.881 107.484,143.547 113.5,137.5C 115.957,136.445 117.623,134.612 118.5,132C 119.448,131.517 120.448,131.351 121.5,131.5C 121.577,134.509 120.244,136.676 117.5,138C 118.068,139.296 118.068,140.796 117.5,142.5C 119.413,144.773 120.413,147.439 120.5,150.5 Z"/></g>
<g><path style="opacity:1" fill="#6152c9" d="M 223.5,175.5 C 225.25,176.659 226.25,178.326 226.5,180.5C 228.109,184.054 229.442,187.721 230.5,191.5C 227.71,188.742 225.543,185.408 224,181.5C 223.505,179.527 223.338,177.527 223.5,175.5 Z"/></g>
<g><path style="opacity:1" fill="#4c3aee" d="M 223.5,175.5 C 223.338,177.527 223.505,179.527 224,181.5C 225.543,185.408 227.71,188.742 230.5,191.5C 230.5,192.5 230.5,193.5 230.5,194.5C 199.498,194.667 168.498,194.5 137.5,194C 136.922,192.583 135.922,191.75 134.5,191.5C 134.5,191.167 134.5,190.833 134.5,190.5C 133.571,185.382 132.238,180.382 130.5,175.5C 161.5,175.5 192.5,175.5 223.5,175.5 Z"/></g>
<g><path style="opacity:1" fill="#6555d8" d="M 223.5,175.5 C 192.5,175.5 161.5,175.5 130.5,175.5C 132.238,180.382 133.571,185.382 134.5,190.5C 131.789,186.044 129.456,181.377 127.5,176.5C 127.5,175.5 127.5,174.5 127.5,173.5C 159.851,172.841 191.851,173.507 223.5,175.5 Z"/></g>
<g><path style="opacity:1" fill="#f4f4fd" d="M 274.5,172.5 C 263.012,173.495 251.345,173.828 239.5,173.5C 239.405,176.697 240.072,179.697 241.5,182.5C 240.153,181.972 238.819,181.805 237.5,182C 237.833,182.333 238.167,182.667 238.5,183C 235.317,187.115 233.65,191.781 233.5,197C 237.19,197.424 237.357,198.258 234,199.5C 217.486,198.344 200.319,197.677 182.5,197.5C 168.457,197.508 154.457,197.842 140.5,198.5C 138.618,197.907 136.785,197.24 135,196.5C 134.667,196.833 134.333,197.167 134,197.5C 133.266,193.96 132.099,190.627 130.5,187.5C 129.813,189.274 128.98,190.941 128,192.5C 128.44,187.141 128.273,181.808 127.5,176.5C 129.456,181.377 131.789,186.044 134.5,190.5C 134.5,190.833 134.5,191.167 134.5,191.5C 134.733,193.062 135.4,194.395 136.5,195.5C 168.329,196.498 200.329,196.832 232.5,196.5C 232.737,195.209 232.404,194.209 231.5,193.5C 231.672,192.508 231.338,191.842 230.5,191.5C 229.442,187.721 228.109,184.054 226.5,180.5C 227.117,180.389 227.617,180.056 228,179.5C 228.394,181.955 229.56,183.955 231.5,185.5C 234.522,181.706 236.188,177.372 236.5,172.5C 237.167,172.167 237.833,171.833 238.5,171.5C 250.449,172.479 262.449,172.813 274.5,172.5 Z"/></g>
<g><path style="opacity:1" fill="#7c77ba" d="M 231.5,193.5 C 232.404,194.209 232.737,195.209 232.5,196.5C 200.329,196.832 168.329,196.498 136.5,195.5C 168.518,196.159 200.184,195.493 231.5,193.5 Z"/></g>
<g><path style="opacity:1" fill="#4c3fc1" d="M 134.5,191.5 C 135.922,191.75 136.922,192.583 137.5,194C 168.498,194.5 199.498,194.667 230.5,194.5C 230.5,193.5 230.5,192.5 230.5,191.5C 231.338,191.842 231.672,192.508 231.5,193.5C 200.184,195.493 168.518,196.159 136.5,195.5C 135.4,194.395 134.733,193.062 134.5,191.5 Z"/></g>
<g><path style="opacity:1" fill="#5c4ecb" d="M 245.5,191.5 C 246.675,191.281 247.675,191.614 248.5,192.5C 250.693,197.353 252.36,202.353 253.5,207.5C 250.467,202.433 247.8,197.1 245.5,191.5 Z"/></g>
<g><path style="opacity:1" fill="#5a49d9" d="M 121.5,196.5 C 123.642,199.8 124.975,203.467 125.5,207.5C 123.226,211.772 120.559,215.772 117.5,219.5C 118.752,216.645 119.752,213.645 120.5,210.5C 119.801,207.599 118.468,205.099 116.5,203C 117.92,201.47 118.92,199.637 119.5,197.5C 119.478,198.995 119.811,200.662 120.5,202.5C 121.466,200.604 121.799,198.604 121.5,196.5 Z"/></g>
<g><path style="opacity:1" fill="#ddd7fd" d="M 235.5,209.5 C 204.482,208.841 173.815,209.508 143.5,211.5C 142.596,210.791 142.263,209.791 142.5,208.5C 173.671,208.169 204.671,208.502 235.5,209.5 Z"/></g>
<g><path style="opacity:1" fill="#5a4ac6" d="M 235.5,209.5 C 236.791,209.263 237.791,209.596 238.5,210.5C 207.5,210.5 176.5,210.5 145.5,210.5C 147.045,214.71 148.045,219.043 148.5,223.5C 146.853,219.576 145.186,215.576 143.5,211.5C 173.815,209.508 204.482,208.841 235.5,209.5 Z"/></g>
<g><path style="opacity:1" fill="#574acd" d="M 116.5,221.5 C 115.32,224.54 113.653,227.206 111.5,229.5C 111.5,227.5 111.5,225.5 111.5,223.5C 113.322,223.169 114.989,222.502 116.5,221.5 Z"/></g>
<g><path style="opacity:1" fill="#4b3aef" d="M 238.5,210.5 C 238.833,210.5 239.167,210.5 239.5,210.5C 239.5,212.833 239.5,215.167 239.5,217.5C 236.344,217.529 234.678,219.196 234.5,222.5C 233.311,223.429 231.978,223.762 230.5,223.5C 230.5,225.833 230.5,228.167 230.5,230.5C 227.287,230.192 226.287,231.359 227.5,234C 227.07,235.434 226.236,236.601 225,237.5C 224.506,239.134 224.34,240.801 224.5,242.5C 223.599,243.29 222.932,244.29 222.5,245.5C 219.667,247.921 217,250.588 214.5,253.5C 212.183,251.684 210.016,249.684 208,247.5C 208.158,250.179 208.658,252.846 209.5,255.5C 210.5,255.5 211.5,255.5 212.5,255.5C 212.5,257.5 212.5,259.5 212.5,261.5C 210.549,261.773 209.049,261.107 208,259.5C 207.517,260.448 207.351,261.448 207.5,262.5C 193.799,262.811 180.132,262.311 166.5,261C 165.661,256.984 164.328,253.15 162.5,249.5C 163.363,247.128 164.529,247.128 166,249.5C 166.287,251.891 166.787,254.224 167.5,256.5C 168.325,257.386 169.325,257.719 170.5,257.5C 169.515,252.889 168.848,248.222 168.5,243.5C 165.436,243.072 162.436,242.406 159.5,241.5C 159.66,239.801 159.494,238.134 159,236.5C 158.111,237.888 157.611,237.722 157.5,236C 158.16,233.226 157.993,230.392 157,227.5C 156.26,229.319 155.093,230.652 153.5,231.5C 152.058,229.46 151.058,227.127 150.5,224.5C 150.043,223.702 149.376,223.369 148.5,223.5C 148.045,219.043 147.045,214.71 145.5,210.5C 176.5,210.5 207.5,210.5 238.5,210.5 Z"/></g>
<g><path style="opacity:1" fill="#5949d1" d="M 239.5,217.5 C 234.682,225.968 229.682,234.301 224.5,242.5C 224.34,240.801 224.506,239.134 225,237.5C 226.236,236.601 227.07,235.434 227.5,234C 226.287,231.359 227.287,230.192 230.5,230.5C 230.5,228.167 230.5,225.833 230.5,223.5C 231.978,223.762 233.311,223.429 234.5,222.5C 234.678,219.196 236.344,217.529 239.5,217.5 Z"/></g>
<g><path style="opacity:1" fill="#5745d4" d="M 135.5,226.5 C 135.5,227.167 135.5,227.833 135.5,228.5C 134.292,227.766 132.959,227.433 131.5,227.5C 131.946,230.01 131.28,232.01 129.5,233.5C 129.44,232.957 129.107,232.624 128.5,232.5C 127.295,233.577 126.628,234.91 126.5,236.5C 125.609,237.11 124.609,237.443 123.5,237.5C 125.483,232.867 127.983,228.534 131,224.5C 132.011,223.663 133.178,223.33 134.5,223.5C 134.263,224.791 134.596,225.791 135.5,226.5 Z"/></g>
<g><path style="opacity:1" fill="#5647d0" d="M 253.5,207.5 C 254.222,207.918 254.722,208.584 255,209.5C 256.749,218.75 254.249,226.417 247.5,232.5C 249.398,227.704 251.565,223.038 254,218.5C 254.579,214.797 254.412,211.131 253.5,207.5 Z"/></g>
<g><path style="opacity:1" fill="#6d5fcf" d="M 148.5,223.5 C 149.376,223.369 150.043,223.702 150.5,224.5C 151.058,227.127 152.058,229.46 153.5,231.5C 155.046,233.882 155.713,236.549 155.5,239.5C 152.632,234.429 150.299,229.095 148.5,223.5 Z"/></g>
<g><path style="opacity:1" fill="#6256c3" d="M 135.5,228.5 C 137.426,232.02 139.092,235.687 140.5,239.5C 137.133,236.782 135.466,233.116 135.5,228.5 Z"/></g>
<g><path style="opacity:1" fill="#5647c9" d="M 247.5,232.5 C 247.704,236.281 246.037,238.614 242.5,239.5C 243.443,236.6 245.11,234.267 247.5,232.5 Z"/></g>
<g><path style="opacity:1" fill="#655dc7" d="M 242.5,239.5 C 242.759,241.989 241.759,243.656 239.5,244.5C 240.11,242.566 241.11,240.899 242.5,239.5 Z"/></g>
<g><path style="opacity:1" fill="#4d3bea" d="M 135.5,228.5 C 135.466,233.116 137.133,236.782 140.5,239.5C 143.012,243.866 145.012,248.533 146.5,253.5C 145.874,254.529 145.041,255.529 144,256.5C 143.186,258.902 143.353,261.235 144.5,263.5C 144.833,263.167 145.167,262.833 145.5,262.5C 144.754,261.264 144.421,259.93 144.5,258.5C 147.635,258.548 149.302,260.215 149.5,263.5C 150.183,263.863 150.85,264.196 151.5,264.5C 138.542,266.481 125.209,267.148 111.5,266.5C 111.179,265.183 110.846,263.849 110.5,262.5C 111.547,260.944 112.214,259.277 112.5,257.5C 117.256,257.28 117.922,256.28 114.5,254.5C 116.784,252.317 118.118,249.65 118.5,246.5C 119.774,243.24 121.44,240.24 123.5,237.5C 124.609,237.443 125.609,237.11 126.5,236.5C 130.095,241.512 130.261,246.512 127,251.5C 125.768,248.77 124.935,248.937 124.5,252C 124.743,255.003 126.41,256.17 129.5,255.5C 129.5,254.5 129.5,253.5 129.5,252.5C 130.833,252.5 132.167,252.5 133.5,252.5C 133.5,253.5 133.5,254.5 133.5,255.5C 146.329,255.571 146.662,254.238 134.5,251.5C 134.983,246.407 133.483,242.074 130,238.5C 129.506,236.866 129.34,235.199 129.5,233.5C 131.28,232.01 131.946,230.01 131.5,227.5C 132.959,227.433 134.292,227.766 135.5,228.5 Z"/></g>
<g><path style="opacity:1" fill="#5342d8" d="M 222.5,245.5 C 219.528,251.122 216.195,256.455 212.5,261.5C 212.5,259.5 212.5,257.5 212.5,255.5C 211.5,255.5 210.5,255.5 209.5,255.5C 208.658,252.846 208.158,250.179 208,247.5C 210.016,249.684 212.183,251.684 214.5,253.5C 217,250.588 219.667,247.921 222.5,245.5 Z"/></g>
<g><path style="opacity:1" fill="#4d37f5" d="M 129.5,233.5 C 129.34,235.199 129.506,236.866 130,238.5C 133.483,242.074 134.983,246.407 134.5,251.5C 146.662,254.238 146.329,255.571 133.5,255.5C 133.5,254.5 133.5,253.5 133.5,252.5C 132.167,252.5 130.833,252.5 129.5,252.5C 129.5,253.5 129.5,254.5 129.5,255.5C 126.41,256.17 124.743,255.003 124.5,252C 124.935,248.937 125.768,248.77 127,251.5C 130.261,246.512 130.095,241.512 126.5,236.5C 126.628,234.91 127.295,233.577 128.5,232.5C 129.107,232.624 129.44,232.957 129.5,233.5 Z"/></g>
<g><path style="opacity:1" fill="#5648cf" d="M 118.5,246.5 C 118.118,249.65 116.784,252.317 114.5,254.5C 117.922,256.28 117.256,257.28 112.5,257.5C 112.214,259.277 111.547,260.944 110.5,262.5C 110.846,263.849 111.179,265.183 111.5,266.5C 110.883,266.389 110.383,266.056 110,265.5C 109.333,263.5 109.333,261.5 110,259.5C 112.383,254.812 115.216,250.478 118.5,246.5 Z"/></g>
<g><path style="opacity:1" fill="#594ad5" d="M 146.5,253.5 C 148.565,256.925 150.231,260.592 151.5,264.5C 150.85,264.196 150.183,263.863 149.5,263.5C 149.302,260.215 147.635,258.548 144.5,258.5C 144.421,259.93 144.754,261.264 145.5,262.5C 145.167,262.833 144.833,263.167 144.5,263.5C 143.353,261.235 143.186,258.902 144,256.5C 145.041,255.529 145.874,254.529 146.5,253.5 Z"/></g>
<g><path style="opacity:1" fill="#5849d1" d="M 103.5,243.5 C 101.465,248.107 98.9653,252.44 96,256.5C 95.3333,260.167 95.3333,263.833 96,267.5C 97.9763,272.954 100.143,278.287 102.5,283.5C 100.659,281.371 98.9924,279.038 97.5,276.5C 96.6906,274.929 96.3573,273.262 96.5,271.5C 95.5,271.5 94.5,271.5 93.5,271.5C 93.1718,266.125 93.5052,260.792 94.5,255.5C 97.2872,252.21 99.4539,248.543 101,244.5C 101.671,243.748 102.504,243.414 103.5,243.5 Z"/></g>
<g><path style="opacity:1" fill="#5344d7" d="M 237.5,248.5 C 237.523,250.6 236.856,252.433 235.5,254C 236.148,255.44 236.481,256.94 236.5,258.5C 234.042,258.227 232.375,259.227 231.5,261.5C 232.325,262.386 233.325,262.719 234.5,262.5C 235.401,266.241 234.068,268.241 230.5,268.5C 230.5,267.5 230.5,266.5 230.5,265.5C 229.5,265.5 228.5,265.5 227.5,265.5C 227.167,267.5 226.833,269.5 226.5,271.5C 225.5,271.5 224.5,271.5 223.5,271.5C 227.43,263.293 232.096,255.626 237.5,248.5 Z"/></g>
<g><path style="opacity:1" fill="#4e3de0" d="M 212.5,261.5 C 212.148,264.079 210.814,265.913 208.5,267C 194.821,267.833 181.154,267.666 167.5,266.5C 166.392,263.941 165.059,261.608 163.5,259.5C 163.657,258.127 163.49,256.793 163,255.5C 160.499,250.147 157.999,244.814 155.5,239.5C 155.713,236.549 155.046,233.882 153.5,231.5C 155.093,230.652 156.26,229.319 157,227.5C 157.993,230.392 158.16,233.226 157.5,236C 157.611,237.722 158.111,237.888 159,236.5C 159.494,238.134 159.66,239.801 159.5,241.5C 162.436,242.406 165.436,243.072 168.5,243.5C 168.848,248.222 169.515,252.889 170.5,257.5C 169.325,257.719 168.325,257.386 167.5,256.5C 166.787,254.224 166.287,251.891 166,249.5C 164.529,247.128 163.363,247.128 162.5,249.5C 164.328,253.15 165.661,256.984 166.5,261C 180.132,262.311 193.799,262.811 207.5,262.5C 207.351,261.448 207.517,260.448 208,259.5C 209.049,261.107 210.549,261.773 212.5,261.5 Z"/></g>
<g><path style="opacity:1" fill="#5143b8" d="M 151.5,264.5 C 152.833,265.5 152.833,266.5 151.5,267.5C 137.99,267.829 124.656,267.496 111.5,266.5C 125.209,267.148 138.542,266.481 151.5,264.5 Z"/></g>
<g><path style="opacity:1" fill="#f7f6f8" d="M 243.5,188.5 C 244.167,189.167 244.833,189.833 245.5,190.5C 245.5,190.833 245.5,191.167 245.5,191.5C 247.8,197.1 250.467,202.433 253.5,207.5C 254.412,211.131 254.579,214.797 254,218.5C 251.565,223.038 249.398,227.704 247.5,232.5C 245.11,234.267 243.443,236.6 242.5,239.5C 241.11,240.899 240.11,242.566 239.5,244.5C 238.326,245.514 237.66,246.847 237.5,248.5C 232.096,255.626 227.43,263.293 223.5,271.5C 221.529,273.808 219.529,276.142 217.5,278.5C 214.652,279.772 211.652,280.605 208.5,281C 194.504,281.5 180.504,281.667 166.5,281.5C 179.994,280.669 193.661,280.169 207.5,280C 196.839,279.5 186.172,279.333 175.5,279.5C 175.5,278.5 175.5,277.5 175.5,276.5C 186.167,276.5 196.833,276.5 207.5,276.5C 207.5,275.5 207.5,274.5 207.5,273.5C 208.978,273.762 210.311,273.429 211.5,272.5C 210.754,271.264 210.421,269.93 210.5,268.5C 195.5,268.5 180.5,268.5 165.5,268.5C 164.833,265.5 164.167,262.5 163.5,259.5C 165.059,261.608 166.392,263.941 167.5,266.5C 181.154,267.666 194.821,267.833 208.5,267C 210.814,265.913 212.148,264.079 212.5,261.5C 216.195,256.455 219.528,251.122 222.5,245.5C 222.932,244.29 223.599,243.29 224.5,242.5C 229.682,234.301 234.682,225.968 239.5,217.5C 239.5,215.167 239.5,212.833 239.5,210.5C 241.527,210.338 243.527,210.505 245.5,211C 245.407,212.813 245.073,214.646 244.5,216.5C 245.768,222.221 247.101,222.554 248.5,217.5C 246.504,213.488 247.504,210.488 251.5,208.5C 250.311,207.571 248.978,207.238 247.5,207.5C 247.5,206.5 247.5,205.5 247.5,204.5C 244.754,204.072 243.087,202.406 242.5,199.5C 243.391,198.41 244.391,198.41 245.5,199.5C 245.833,199 246.167,198.5 246.5,198C 244.811,195.083 243.811,191.916 243.5,188.5 Z"/></g>
<g><path style="opacity:1" fill="#faf9f9" d="M 125.5,207.5 C 125.611,208.117 125.944,208.617 126.5,209C 124.594,210.856 123.76,213.023 124,215.5C 126.326,216.813 127.659,218.813 128,221.5C 128.388,220.572 129.055,219.905 130,219.5C 131.368,220.703 132.868,221.703 134.5,222.5C 135.429,223.689 135.762,225.022 135.5,226.5C 134.596,225.791 134.263,224.791 134.5,223.5C 133.178,223.33 132.011,223.663 131,224.5C 127.983,228.534 125.483,232.867 123.5,237.5C 121.44,240.24 119.774,243.24 118.5,246.5C 115.216,250.478 112.383,254.812 110,259.5C 109.333,261.5 109.333,263.5 110,265.5C 110.383,266.056 110.883,266.389 111.5,266.5C 124.656,267.496 137.99,267.829 151.5,267.5C 138.327,268.167 124.994,268.833 111.5,269.5C 124.821,270.333 138.154,270.833 151.5,271C 151.043,271.414 150.709,271.914 150.5,272.5C 151.655,273.95 153.155,274.95 155,275.5C 155.49,276.793 155.657,278.127 155.5,279.5C 150.069,278.094 147.735,280.094 148.5,285.5C 146.64,286.071 144.973,286.071 143.5,285.5C 143.5,285.167 143.5,284.833 143.5,284.5C 145.532,283.952 146.532,282.619 146.5,280.5C 136.652,280.173 126.986,280.506 117.5,281.5C 119.902,287.967 122.569,294.301 125.5,300.5C 127.24,301.809 128.573,301.476 129.5,299.5C 133.553,295.11 137.887,291.11 142.5,287.5C 144.706,290.53 147.372,293.197 150.5,295.5C 151.521,294.998 151.688,294.332 151,293.5C 149.656,291.658 148.156,289.992 146.5,288.5C 148.909,288.242 151.242,288.242 153.5,288.5C 151.96,287.468 151.46,286.135 152,284.5C 153.674,283.324 155.174,281.99 156.5,280.5C 157.672,280.919 158.672,281.585 159.5,282.5C 156.933,284.765 156.933,286.765 159.5,288.5C 159.5,288.833 159.5,289.167 159.5,289.5C 158.761,289.369 158.094,289.536 157.5,290C 152.329,296.003 146.996,301.837 141.5,307.5C 138.665,310.165 135.665,312.665 132.5,315C 128.113,315.706 123.78,315.54 119.5,314.5C 116.129,312.064 113.462,309.064 111.5,305.5C 109.581,297.67 106.581,290.337 102.5,283.5C 100.143,278.287 97.9763,272.954 96,267.5C 95.3333,263.833 95.3333,260.167 96,256.5C 98.9653,252.44 101.465,248.107 103.5,243.5C 106.149,238.873 108.816,234.207 111.5,229.5C 113.653,227.206 115.32,224.54 116.5,221.5C 116.833,220.833 117.167,220.167 117.5,219.5C 120.559,215.772 123.226,211.772 125.5,207.5 Z"/></g>
<g><path style="opacity:1" fill="#8c7fd0" d="M 117.5,281.5 C 126.986,280.506 136.652,280.173 146.5,280.5C 146.532,282.619 145.532,283.952 143.5,284.5C 143.5,283.5 143.5,282.5 143.5,281.5C 134.833,281.5 126.167,281.5 117.5,281.5 Z"/></g>
<g><path style="opacity:1" fill="#5546bb" d="M 217.5,278.5 C 217.047,279.458 216.381,280.292 215.5,281C 200.539,282.23 185.539,282.897 170.5,283C 168.833,283.333 167.167,283.667 165.5,284C 164.491,286.172 162.824,287.338 160.5,287.5C 162.167,285.167 164.167,283.167 166.5,281.5C 180.504,281.667 194.504,281.5 208.5,281C 211.652,280.605 214.652,279.772 217.5,278.5 Z"/></g>
<g><path style="opacity:1" fill="#5545d2" d="M 117.5,281.5 C 126.167,281.5 134.833,281.5 143.5,281.5C 143.5,282.5 143.5,283.5 143.5,284.5C 143.5,284.833 143.5,285.167 143.5,285.5C 143.167,286.167 142.833,286.833 142.5,287.5C 137.887,291.11 133.553,295.11 129.5,299.5C 128.573,301.476 127.24,301.809 125.5,300.5C 122.569,294.301 119.902,287.967 117.5,281.5 Z"/></g>
<g><path style="opacity:1" fill="#4c39ed" d="M 129.5,299.5 C 128.178,299.67 127.011,299.337 126,298.5C 123.842,293.213 122.009,287.88 120.5,282.5C 123.518,282.335 126.518,282.502 129.5,283C 130.09,284.299 131.09,285.132 132.5,285.5C 134.048,283.624 136.048,282.624 138.5,282.5C 138.5,284.167 138.5,285.833 138.5,287.5C 136.712,287.215 135.045,287.548 133.5,288.5C 134.246,289.736 134.579,291.07 134.5,292.5C 132.326,292.92 130.326,292.92 128.5,292.5C 128.167,293 127.833,293.5 127.5,294C 128.885,295.597 129.551,297.43 129.5,299.5 Z"/></g>
<g><path style="opacity:1" fill="#5a4dcd" d="M 159.5,289.5 C 155.674,293.802 151.841,298.135 148,302.5C 147.997,306.882 145.831,308.549 141.5,307.5C 146.996,301.837 152.329,296.003 157.5,290C 158.094,289.536 158.761,289.369 159.5,289.5 Z"/></g>
<g><path style="opacity:1" fill="#5242d5" d="M 111.5,305.5 C 113.462,309.064 116.129,312.064 119.5,314.5C 119.611,315.117 119.944,315.617 120.5,316C 124.833,316.667 129.167,316.667 133.5,316C 136.331,313.999 138.997,311.833 141.5,309.5C 140.118,312.394 138.118,314.894 135.5,317C 132.373,317.392 129.373,318.225 126.5,319.5C 123.025,318.114 119.525,316.781 116,315.5C 114.715,315.95 113.548,316.617 112.5,317.5C 112.167,317 111.833,316.5 111.5,316C 112.394,314.604 113.061,313.104 113.5,311.5C 112.349,309.675 111.682,307.675 111.5,305.5 Z"/></g>
<g><path style="opacity:1" fill="#756cca" d="M 141.5,307.5 C 141.5,308.167 141.5,308.833 141.5,309.5C 138.997,311.833 136.331,313.999 133.5,316C 129.167,316.667 124.833,316.667 120.5,316C 119.944,315.617 119.611,315.117 119.5,314.5C 123.78,315.54 128.113,315.706 132.5,315C 135.665,312.665 138.665,310.165 141.5,307.5 Z"/></g>
</svg>
