<?xml version="1.0" encoding="UTF-8"?>
<svg version="1.1" xmlns="http://www.w3.org/2000/svg" width="860" height="884">
<path d="M0 0 C8.17531476 5.85824694 13.67202524 13.8696357 15.73693848 23.84060669 C16.2608137 27.73209404 16.35624087 31.56520928 16.37695312 35.48388672 C16.38363479 36.27148691 16.39031645 37.0590871 16.39720058 37.87055397 C16.90690248 98.17143102 17.31771562 158.47249848 17.66889563 218.77448093 C17.72528387 228.45313292 17.78233515 238.13178097 17.83941942 247.81042887 C17.95614022 267.60278187 18.07210012 287.39513926 18.1875 307.1875 C19.31580158 307.18636084 19.31580158 307.18636084 20.46689713 307.18519866 C65.07587229 307.14041557 109.684845 307.10611326 154.29383815 307.08536934 C159.65341167 307.08286801 165.01298514 307.08027936 170.37255859 307.07763672 C171.97301021 307.07684979 171.97301021 307.07684979 173.60579418 307.07604696 C190.86843552 307.06735093 208.1310635 307.05158537 225.39369692 307.03319441 C243.11461815 307.01447305 260.8355324 307.00337855 278.55646312 306.99932301 C289.48593764 306.99658259 300.4153744 306.98793578 311.34483729 306.97166707 C318.84565102 306.96107258 326.34644531 306.95790495 333.84726597 306.96049725 C338.17094516 306.9617747 342.49455847 306.95985471 346.81822586 306.94908905 C350.78506635 306.93928454 354.7517973 306.93891129 358.71864305 306.94570221 C360.14553364 306.94654028 361.57243134 306.94406456 362.99930812 306.93773364 C386.34033711 306.84028483 407.51539765 311.3793516 424.8828125 327.88671875 C425.64335938 328.64597656 426.40390625 329.40523438 427.1875 330.1875 C427.88617187 330.87457031 428.58484375 331.56164062 429.3046875 332.26953125 C445.15381214 348.88952771 449.73229989 369.56361006 449.4609375 391.85546875 C448.90453192 410.52810956 440.22674079 425.44885929 428.61816406 439.44628906 C426.29401425 442.2749301 424.05980877 445.17275271 421.8125 448.0625 C417.2669353 453.86822125 412.61774873 459.58578443 407.95361328 465.29638672 C403.78932094 470.40997456 399.76766832 475.61464592 395.76953125 480.859375 C392.88102598 484.61454455 389.87754287 488.27335728 386.875 491.9375 C382.3859943 497.41805579 378.02376783 502.97515429 373.75 508.625 C368.73197915 515.25481462 363.52446967 521.69794841 358.20947266 528.09130859 C353.91723422 533.26572728 349.80342764 538.5422643 345.734375 543.89453125 C342.86223144 547.64174549 339.8676283 551.28633414 336.875 554.9375 C332.38592475 560.4179951 328.02375428 565.97515009 323.75 571.625 C318.80158487 578.16309629 313.66463212 584.51177476 308.41821289 590.81225586 C304.38219586 595.68041829 300.49924454 600.64227122 296.6875 605.6875 C291.76180816 612.20715052 286.64629524 618.53389159 281.41796875 624.8125 C277.38208242 629.68062009 273.49917527 634.6423629 269.6875 639.6875 C264.76180816 646.20715052 259.64629524 652.53389159 254.41796875 658.8125 C250.38208242 663.68062009 246.49917527 668.6423629 242.6875 673.6875 C237.76180816 680.20715052 232.64629524 686.53389159 227.41796875 692.8125 C223.38208242 697.68062009 219.49917527 702.6423629 215.6875 707.6875 C210.76180816 714.20715052 205.64629524 720.53389159 200.41796875 726.8125 C196.38208242 731.68062009 192.49917527 736.6423629 188.6875 741.6875 C183.76180816 748.20715052 178.64629524 754.53389159 173.41796875 760.8125 C169.38208188 765.68062075 165.49918401 770.64236827 161.6875 775.6875 C156.69231656 782.29892923 151.50613859 788.72009567 146.20922852 795.09155273 C141.91712496 800.26593201 137.80335795 805.54235596 133.734375 810.89453125 C130.86223144 814.64174549 127.8676283 818.28633414 124.875 821.9375 C120.38588555 827.41804296 116.02493271 832.97600499 111.75 838.625 C84.73777065 874.1777702 84.73777065 874.1777702 69.1875 877.1875 C55.70558689 878.16537955 44.8605412 875.83454316 34.1875 867.1875 C26.8509096 860.53610369 22.62434136 850.98025399 22.07284737 841.14222717 C21.99894997 838.69500139 21.95573563 836.2488947 21.92211914 833.80078125 C21.9056389 832.86144556 21.88915867 831.92210987 21.87217903 830.95430946 C21.81802205 827.80292907 21.77034057 824.65148449 21.72265625 821.5 C21.68504548 819.22894691 21.64705635 816.95790007 21.60871887 814.68685913 C21.50527348 808.48610434 21.40760972 802.28527042 21.31111908 796.08440399 C21.22936417 790.87177569 21.14446886 785.6592005 21.05955505 780.44662285 C20.79601827 764.26268515 20.54268511 748.07859594 20.29173422 731.89445889 C20.21003943 726.62945959 20.12769183 721.36447077 20.04498291 716.0994873 C20.02719397 714.96702721 20.02719397 714.96702721 20.00904566 713.81168914 C19.99716335 713.05527074 19.98528105 712.29885234 19.97303867 711.51951218 C19.69896405 694.07159867 19.42917143 676.62362283 19.16344088 659.17558026 C19.09656317 654.78669246 19.02919107 650.39781259 18.9614237 646.00893843 C18.85325655 639.00313308 18.74658419 631.99730814 18.64272052 624.99143755 C18.59516334 621.78477567 18.54680351 618.5781301 18.49701881 615.37150192 C18.47865156 614.18497654 18.46028431 612.99845116 18.44136047 611.77597046 C18.4253243 610.75389181 18.40928812 609.73181316 18.392766 608.67876244 C18.24452056 597.8974798 18.16677712 587.11943473 18.17800903 576.33706665 C18.17869416 575.06298856 18.17937929 573.78891047 18.18008518 572.47622395 C18.18185017 569.37998143 18.18433086 566.28374134 18.1875 563.1875 C17.06554633 563.18863916 17.06554633 563.18863916 15.92092693 563.18980134 C-28.43753471 563.23458489 -72.79599388 563.26888697 -117.15447361 563.28963066 C-122.48400458 563.29213199 -127.8135355 563.29472064 -133.14306641 563.29736328 C-134.20405292 563.2978879 -135.26503943 563.29841252 -136.35817705 563.29895304 C-153.52382053 563.30764896 -170.68945058 563.32341446 -187.8550861 563.34180559 C-205.47656624 563.36052726 -223.09803936 563.37162152 -240.71952903 563.37567699 C-251.58758472 563.37841734 -262.45560242 563.38706381 -273.32364641 563.40333293 C-280.7824106 563.4139278 -288.24115523 563.41709497 -295.69992639 563.41450275 C-299.99930252 563.41322536 -304.29861242 563.41514461 -308.59797668 563.42591095 C-312.54261229 563.4357163 -316.48713775 563.43608818 -320.43177865 563.42929779 C-321.85059393 563.4284598 -323.26941638 563.4309348 -324.68821777 563.43726636 C-348.00377937 563.53517178 -369.16232758 558.97480446 -386.5078125 542.48828125 C-387.26835937 541.72902344 -388.02890625 540.96976563 -388.8125 540.1875 C-389.51117188 539.50042969 -390.20984375 538.81335938 -390.9296875 538.10546875 C-406.77881214 521.48547229 -411.35729989 500.81138994 -411.0859375 478.51953125 C-410.52953192 459.84689044 -401.85174079 444.92614071 -390.24316406 430.92871094 C-387.91901425 428.1000699 -385.68480877 425.20224729 -383.4375 422.3125 C-378.8919353 416.50677875 -374.24274873 410.78921557 -369.57861328 405.07861328 C-365.41432094 399.96502544 -361.39266832 394.76035408 -357.39453125 389.515625 C-354.50602598 385.76045545 -351.50254287 382.10164272 -348.5 378.4375 C-344.01099486 372.95694489 -339.64875668 367.39985308 -335.375 361.75 C-330.42658487 355.21190371 -325.28963212 348.86322524 -320.04321289 342.56274414 C-316.00719531 337.69458105 -312.12425328 332.73272342 -308.3125 327.6875 C-303.31731656 321.07607077 -298.13113859 314.65490433 -292.83422852 308.28344727 C-288.54212496 303.10906799 -284.42835795 297.83264404 -280.359375 292.48046875 C-277.48723144 288.73325451 -274.4926283 285.08866586 -271.5 281.4375 C-267.01092475 275.9570049 -262.64875428 270.39984991 -258.375 264.75 C-253.42658487 258.21190371 -248.28963212 251.86322524 -243.04321289 245.56274414 C-239.00719586 240.69458171 -235.12424454 235.73272878 -231.3125 230.6875 C-226.38680816 224.16784948 -221.27129524 217.84110841 -216.04296875 211.5625 C-212.00708242 206.69437991 -208.12417527 201.7326371 -204.3125 196.6875 C-199.38680816 190.16784948 -194.27129524 183.84110841 -189.04296875 177.5625 C-185.00708242 172.69437991 -181.12417527 167.7326371 -177.3125 162.6875 C-172.38680816 156.16784948 -167.27129524 149.84110841 -162.04296875 143.5625 C-158.00708242 138.69437991 -154.12417527 133.7326371 -150.3125 128.6875 C-145.38680816 122.16784948 -140.27129524 115.84110841 -135.04296875 109.5625 C-131.00708242 104.69437991 -127.12417527 99.7326371 -123.3125 94.6875 C-118.38680816 88.16784948 -113.27129524 81.84110841 -108.04296875 75.5625 C-104.00708188 70.69437925 -100.12418401 65.73263173 -96.3125 60.6875 C-91.31731656 54.07607077 -86.13113859 47.65490433 -80.83422852 41.28344727 C-77.3846336 37.12476092 -74.02494566 32.92270378 -70.75 28.625 C-52.53364528 4.77595665 -31.82235748 -19.74998226 0 0 Z " fill="#30AE75" transform="translate(410.8125,6.8125)"/>
<path d="M0 0 C8.17531476 5.85824694 13.67202524 13.8696357 15.73693848 23.84060669 C16.26083287 27.73223644 16.35542827 31.56515942 16.37695312 35.48388672 C16.38942282 36.72473369 16.38942282 36.72473369 16.40214443 37.99064827 C16.42894808 40.78280696 16.44885722 43.5749716 16.46875 46.3671875 C16.48666333 48.40560217 16.50494992 50.44401358 16.52357483 52.48242188 C16.57381524 58.13952182 16.6176115 63.79665584 16.66002274 69.45381927 C16.68767107 73.08496727 16.71695506 76.7160984 16.74679565 80.347229 C16.89492997 98.3848049 17.02761633 116.42246745 17.15425873 134.46020508 C17.18245883 138.4760279 17.21093927 142.49184869 17.23948133 146.50766909 C17.77846537 222.39582962 18.29037504 298.28210168 18.17752075 374.17251587 C18.1171131 415.97096927 18.41974019 457.76156661 18.83203125 499.55761719 C18.84358498 500.73674273 18.8551387 501.91586828 18.86704254 503.13072491 C18.92092764 508.61332326 18.9761813 514.09589808 19.03503418 519.57844543 C19.09658513 525.4480671 19.14651451 531.31769972 19.1875 537.1875 C19.19582855 538.32248302 19.2041571 539.45746605 19.21273804 540.6268425 C19.23565316 544.12224045 19.25081939 547.61758903 19.26367188 551.11303711 C19.2750053 552.75137308 19.2750053 552.75137308 19.28656769 554.42280674 C19.28863976 555.42445834 19.29071182 556.42610994 19.29284668 557.45811462 C19.29669121 558.34870543 19.30053574 559.23929625 19.30449677 560.15687466 C19.1875 562.1875 19.1875 562.1875 18.1875 563.1875 C16.30839819 563.28692651 14.42550458 563.31489964 12.5437746 563.31613445 C11.31032852 563.3193589 10.07688243 563.32258335 8.80605918 563.3259055 C7.4194782 563.32443402 6.03289731 563.32286627 4.64631653 563.32121277 C3.18700164 563.32307892 1.72768725 563.32537884 0.26837367 563.32807809 C-3.76130433 563.33422757 -7.79096168 563.3340588 -11.82064331 563.33288372 C-16.15972396 563.33268048 -20.49879783 563.33819136 -24.83787537 563.34294128 C-33.34954172 563.35126759 -41.86120116 563.35399709 -50.37287124 563.35455366 C-57.29492595 563.35502826 -64.21697838 563.3570802 -71.13903236 563.36025429 C-90.76236621 563.36906929 -110.38569458 563.3736728 -130.00903042 563.37292381 C-131.06815732 563.37288386 -132.12728421 563.3728439 -133.21850586 563.37280273 C-134.27892687 563.37276185 -135.33934788 563.37272097 -136.43190286 563.37267885 C-153.59101857 563.37227301 -170.75011227 563.38182469 -187.90922161 563.3959411 C-205.52621576 563.41031969 -223.1431992 563.41721034 -240.76019937 563.41634732 C-250.65117433 563.41601568 -260.54212626 563.41874809 -270.43309593 563.42952538 C-278.86188736 563.43865028 -287.29064535 563.44078962 -295.71943959 563.43401595 C-300.01679478 563.43075966 -304.31408591 563.4306615 -308.61143494 563.4393692 C-312.55418429 563.44727569 -316.49681923 563.44576076 -320.43956593 563.43708507 C-321.85767667 563.43555906 -323.27579611 563.43733189 -324.69389655 563.44294515 C-348.00812825 563.52903427 -369.16239743 558.97473806 -386.5078125 542.48828125 C-387.26835937 541.72902344 -388.02890625 540.96976563 -388.8125 540.1875 C-389.51117188 539.50042969 -390.20984375 538.81335938 -390.9296875 538.10546875 C-406.77881214 521.48547229 -411.35729989 500.81138994 -411.0859375 478.51953125 C-410.52953192 459.84689044 -401.85174079 444.92614071 -390.24316406 430.92871094 C-387.91901425 428.1000699 -385.68480877 425.20224729 -383.4375 422.3125 C-378.8919353 416.50677875 -374.24274873 410.78921557 -369.57861328 405.07861328 C-365.41432094 399.96502544 -361.39266832 394.76035408 -357.39453125 389.515625 C-354.50602598 385.76045545 -351.50254287 382.10164272 -348.5 378.4375 C-344.01099486 372.95694489 -339.64875668 367.39985308 -335.375 361.75 C-330.42658487 355.21190371 -325.28963212 348.86322524 -320.04321289 342.56274414 C-316.00719531 337.69458105 -312.12425328 332.73272342 -308.3125 327.6875 C-303.31731656 321.07607077 -298.13113859 314.65490433 -292.83422852 308.28344727 C-288.54212496 303.10906799 -284.42835795 297.83264404 -280.359375 292.48046875 C-277.48723144 288.73325451 -274.4926283 285.08866586 -271.5 281.4375 C-267.01092475 275.9570049 -262.64875428 270.39984991 -258.375 264.75 C-253.42658487 258.21190371 -248.28963212 251.86322524 -243.04321289 245.56274414 C-239.00719586 240.69458171 -235.12424454 235.73272878 -231.3125 230.6875 C-226.38680816 224.16784948 -221.27129524 217.84110841 -216.04296875 211.5625 C-212.00708242 206.69437991 -208.12417527 201.7326371 -204.3125 196.6875 C-199.38680816 190.16784948 -194.27129524 183.84110841 -189.04296875 177.5625 C-185.00708242 172.69437991 -181.12417527 167.7326371 -177.3125 162.6875 C-172.38680816 156.16784948 -167.27129524 149.84110841 -162.04296875 143.5625 C-158.00708242 138.69437991 -154.12417527 133.7326371 -150.3125 128.6875 C-145.38680816 122.16784948 -140.27129524 115.84110841 -135.04296875 109.5625 C-131.00708242 104.69437991 -127.12417527 99.7326371 -123.3125 94.6875 C-118.38680816 88.16784948 -113.27129524 81.84110841 -108.04296875 75.5625 C-104.00708188 70.69437925 -100.12418401 65.73263173 -96.3125 60.6875 C-91.31731656 54.07607077 -86.13113859 47.65490433 -80.83422852 41.28344727 C-77.3846336 37.12476092 -74.02494566 32.92270378 -70.75 28.625 C-52.53364528 4.77595665 -31.82235748 -19.74998226 0 0 Z " fill="#3ECE8E" transform="translate(410.8125,6.8125)"/>
<path d="M0 0 C0.33 0 0.66 0 1 0 C1.28436332 13.62109238 1.56294789 27.24228942 1.83411503 40.86365128 C1.96020538 47.18829749 2.08830084 53.51288996 2.22094727 59.83740234 C2.3488376 65.93864034 2.47150199 72.03996289 2.59051323 78.14138031 C2.63688721 80.47146144 2.68515774 82.80150561 2.73533821 85.13150787 C2.80519419 88.39000386 2.86836165 91.64856497 2.92993164 94.90722656 C2.95222839 95.874673 2.97452515 96.84211945 2.99749756 97.83888245 C3.02067802 99.1723597 3.02067802 99.1723597 3.04432678 100.53277588 C3.05999726 101.30339481 3.07566774 102.07401375 3.09181309 102.86798477 C2.99799806 105.04648753 2.55950266 106.8991853 2 109 C1.90781 111.01269911 1.8693275 113.02816054 1.8671875 115.04296875 C1.86589844 116.19861328 1.86460937 117.35425781 1.86328125 118.54492188 C1.86714844 119.74697266 1.87101562 120.94902344 1.875 122.1875 C1.87113281 123.40115234 1.86726563 124.61480469 1.86328125 125.86523438 C1.86457031 127.01701172 1.86585938 128.16878906 1.8671875 129.35546875 C1.86831543 130.41403076 1.86944336 131.47259277 1.87060547 132.56323242 C1.72491799 134.94779025 1.72491799 134.94779025 3 136 C3.45790557 142.03357931 2.7591914 148.02136775 2 154 C1.67 154 1.34 154 1 154 C-0.19845943 138.2492315 -0.13253959 122.49800229 -0.10139394 106.71255255 C-0.09505851 102.94900543 -0.09454867 99.18545714 -0.09336853 95.42190552 C-0.0902848 88.32513758 -0.08211213 81.2283854 -0.07201904 74.13162434 C-0.06076496 66.03946465 -0.05532425 57.94730413 -0.05032361 49.85513854 C-0.03992636 33.23674986 -0.02238545 16.61837696 0 0 Z " fill="#168A55" transform="translate(429,377)"/>
<path d="M0 0 C0.66 0 1.32 0 2 0 C2.1954625 2.24932227 2.38108226 4.49950142 2.5625 6.75 C2.66691406 8.00296875 2.77132813 9.2559375 2.87890625 10.546875 C3 14 3 14 2.51586914 15.83813477 C1.85356957 18.61364952 1.87021765 21.19008117 1.8671875 24.04296875 C1.86589844 25.19861328 1.86460937 26.35425781 1.86328125 27.54492188 C1.86714844 28.74697266 1.87101562 29.94902344 1.875 31.1875 C1.87113281 32.40115234 1.86726563 33.61480469 1.86328125 34.86523438 C1.86457031 36.01701172 1.86585938 37.16878906 1.8671875 38.35546875 C1.86831543 39.41403076 1.86944336 40.47259277 1.87060547 41.56323242 C1.72491799 43.94779025 1.72491799 43.94779025 3 45 C3.45790557 51.03357931 2.7591914 57.02136775 2 63 C1.67 63 1.34 63 1 63 C0.03210225 49.11334071 -0.12171441 35.29150256 -0.0625 21.375 C-0.05746856 19.28906359 -0.0529086 17.20312599 -0.04882812 15.1171875 C-0.03796746 10.07809476 -0.02079613 5.03906112 0 0 Z " fill="#229561" transform="translate(429,468)"/>
<path d="M0 0 C23.43 0 46.86 0 71 0 C71 0.33 71 0.66 71 1 C70.27194656 1.01030746 69.54389313 1.02061493 68.79377747 1.03123474 C61.92282063 1.1293305 55.05194266 1.23186183 48.18112659 1.33933926 C44.64902064 1.39443507 41.11690622 1.44783313 37.5847168 1.49731445 C33.52123332 1.55431367 29.45789738 1.61876325 25.39453125 1.68359375 C24.1297847 1.70030624 22.86503815 1.71701874 21.56196594 1.73423767 C19.79069588 1.7641555 19.79069588 1.7641555 17.98364258 1.79467773 C16.94661697 1.81022202 15.90959137 1.8257663 14.84114075 1.84178162 C12.13343836 1.99256904 9.63977491 2.39510882 7 3 C7 2.34 7 1.68 7 1 C4.69 1 2.38 1 0 1 C0 0.67 0 0.34 0 0 Z " fill="#3F9D7B" transform="translate(647,314)"/>
<path d="M0 0 C8.91 0 17.82 0 27 0 C27 0.33 27 0.66 27 1 C25.46279297 1.09087891 25.46279297 1.09087891 23.89453125 1.18359375 C22.53384305 1.26805026 21.17316657 1.35269567 19.8125 1.4375 C19.13896484 1.47681641 18.46542969 1.51613281 17.77148438 1.55664062 C14.10300898 1.78927565 10.58305794 2.17207011 7 3 C7 2.34 7 1.68 7 1 C4.69 1 2.38 1 0 1 C0 0.67 0 0.34 0 0 Z " fill="#349872" transform="translate(647,314)"/>
<path d="M0 0 C0.66 0.33 1.32 0.66 2 1 C0.85793642 2.50287218 -0.28874957 4.00223284 -1.4375 5.5 C-2.39462891 6.75296875 -2.39462891 6.75296875 -3.37109375 8.03125 C-3.90863281 8.6809375 -4.44617188 9.330625 -5 10 C-5.33 10 -5.66 10 -6 10 C-5.67 7.69 -5.34 5.38 -5 3 C-4.34 3 -3.68 3 -3 3 C-3 2.34 -3 1.68 -3 1 C-2.01 0.67 -1.02 0.34 0 0 Z " fill="#44CA91" transform="translate(779,519)"/>
<path d="M0 0 C0.99 0.33 1.98 0.66 3 1 C1.33248852 4.94139078 -1.22710649 7.7892812 -4 11 C-4 8.66666667 -4 6.33333333 -4 4 C-2.68 3.67 -1.36 3.34 0 3 C0 2.01 0 1.02 0 0 Z " fill="#45C991" transform="translate(814,472)"/>
<path d="M0 0 C0.66 0.33 1.32 0.66 2 1 C0.02 3.31 -1.96 5.62 -4 8 C-4.99 7.67 -5.98 7.34 -7 7 C-7 5.68 -7 4.36 -7 3 C-5.5459375 2.5359375 -5.5459375 2.5359375 -4.0625 2.0625 C-1.15934208 1.30476658 -1.15934208 1.30476658 0 0 Z " fill="#51C28E" transform="translate(641,693)"/>
<path d="M0 0 C4.06498881 1.37184347 6.67396561 3.22068459 9.8125 6.125 C10.99779297 7.21167969 10.99779297 7.21167969 12.20703125 8.3203125 C12.79871094 8.87460937 13.39039063 9.42890625 14 10 C13.67 10.66 13.34 11.32 13 12 C12.34 12 11.68 12 11 12 C10.71125 11.360625 10.4225 10.72125 10.125 10.0625 C9.17176549 7.84793921 9.17176549 7.84793921 7 7 C7 6.34 7 5.68 7 5 C6.01 5 5.02 5 4 5 C4 4.34 4 3.68 4 3 C2.68 2.34 1.36 1.68 0 1 C0 0.67 0 0.34 0 0 Z " fill="#48C691" transform="translate(823,326)"/>
<path d="M0 0 C1.32 0.33 2.64 0.66 4 1 C3.04737966 2.48285242 2.08771595 3.96118201 1.125 5.4375 C0.59132813 6.26121094 0.05765625 7.08492187 -0.4921875 7.93359375 C-2 10 -2 10 -4 11 C-3.67 9.35 -3.34 7.7 -3 6 C-2.34 6 -1.68 6 -1 6 C-0.67 4.02 -0.34 2.04 0 0 Z " fill="#48C08B" transform="translate(596,746)"/>
<path d="M0 0 C0.66 0.33 1.32 0.66 2 1 C1.04956626 2.33897583 0.08940853 3.67105427 -0.875 5 C-1.40867187 5.7425 -1.94234375 6.485 -2.4921875 7.25 C-3.23855469 8.11625 -3.23855469 8.11625 -4 9 C-4.66 9 -5.32 9 -6 9 C-6 7.02 -6 5.04 -6 3 C-4.68 3 -3.36 3 -2 3 C-1.34 2.01 -0.68 1.02 0 0 Z " fill="#3ECF8E" transform="translate(728,583)"/>
<path d="M0 0 C0.66 0.66 1.32 1.32 2 2 C0.85793642 3.50287218 -0.28874957 5.00223284 -1.4375 6.5 C-2.39462891 7.75296875 -2.39462891 7.75296875 -3.37109375 9.03125 C-3.90863281 9.6809375 -4.44617188 10.330625 -5 11 C-5.33 11 -5.66 11 -6 11 C-6.25 8.75 -6.25 8.75 -6 6 C-4.125 3.6875 -4.125 3.6875 -2 2 C-1.34 2 -0.68 2 0 2 C0 1.34 0 0.68 0 0 Z " fill="#42CA96" transform="translate(833,450)"/>
<path d="M0 0 C0.66 1.32 1.32 2.64 2 4 C1.01 4.33 0.02 4.66 -1 5 C-2.68538601 6.99665314 -2.68538601 6.99665314 -4 9 C-4.66 8.67 -5.32 8.34 -6 8 C-4.02 5.36 -2.04 2.72 0 0 Z " fill="#50C492" transform="translate(322,58)"/>
<path d="M0 0 C0 3 0 3 -2.5 5.6875 C-3.325 6.450625 -4.15 7.21375 -5 8 C-5.33 6.68 -5.66 5.36 -6 4 C-4.02 2.68 -2.04 1.36 0 0 Z " fill="#40BB84" transform="translate(512,856)"/>
<path d="M0 0 C0.66 0.33 1.32 0.66 2 1 C-0.31 3.64 -2.62 6.28 -5 9 C-6 6 -6 6 -6 4 C-4.36368108 2.95107762 -2.69514137 1.95093297 -1 1 C-0.67 0.67 -0.34 0.34 0 0 Z " fill="#4AC28D" transform="translate(634,702)"/>
<path d="M0 0 C0.33 0.99 0.66 1.98 1 3 C-1.5958956 5.87402727 -3.21369298 7.24432948 -7 8 C-6.02133662 6.85373678 -5.04205413 5.70800212 -4.0625 4.5625 C-3.51722656 3.92441406 -2.97195313 3.28632813 -2.41015625 2.62890625 C-1.63204305 1.73008851 -0.84063472 0.84063472 0 0 Z " fill="#49C792" transform="translate(364,7)"/>
<path d="M0 0 C0.66 0.33 1.32 0.66 2 1 C2 1.99 2 2.98 2 4 C0.68 4 -0.64 4 -2 4 C-2.33 4.99 -2.66 5.98 -3 7 C-3.66 6.67 -4.32 6.34 -5 6 C-3.35 4.02 -1.7 2.04 0 0 Z " fill="#51C190" transform="translate(258,139)"/>
</svg>
